<svg xmlns="http://www.w3.org/2000/svg" viewBox="0 0 512 512">
  <defs>
    <linearGradient id="bg" x1="0" x2="1" y1="0" y2="1">
      <stop offset="0%" stop-color="#6cf0d8" />
      <stop offset="100%" stop-color="#57a7ff" />
    </linearGradient>
  </defs>
  <rect width="512" height="512" rx="112" fill="#101620" />
  <rect x="56" y="56" width="400" height="400" rx="88" fill="url(#bg)" />
  <path
    d="M164 180h184a28 28 0 0 1 28 28v96a28 28 0 0 1-28 28H164a28 28 0 0 1-28-28v-96a28 28 0 0 1 28-28Z"
    fill="#eff8ff"
  />
  <path d="M196 152h120v40H196z" fill="#101620" opacity="0.18" />
  <circle cx="204" cy="236" r="18" fill="#101620" />
  <circle cx="256" cy="236" r="18" fill="#101620" />
  <circle cx="308" cy="236" r="18" fill="#101620" />
  <rect x="196" y="284" width="120" height="20" rx="10" fill="#101620" opacity="0.3" />
</svg>
